<mxfile host="app.diagrams.net" modified="2023-07-25T11:32:23.893Z" agent="Mozilla/5.0 (X11; Linux x86_64) AppleWebKit/537.36 (KHTML, like Gecko) Chrome/102.0.0.0 Safari/537.36" etag="YJ-PDrf1PzZKFLqdSH3S" version="21.6.3" type="device">
  <diagram name="PÃ¡gina-1" id="aOrqjgJX0X1cZK1OQeXR">
    <mxGraphModel dx="1687" dy="906" grid="1" gridSize="10" guides="1" tooltips="1" connect="1" arrows="1" fold="1" page="1" pageScale="1" pageWidth="1169" pageHeight="1654" math="0" shadow="0">
      <root>
        <mxCell id="0" />
        <mxCell id="1" parent="0" />
        <mxCell id="TXVNdsbxdxfbxnSRyo0z-47" value="" style="rounded=1;whiteSpace=wrap;html=1;container=0;fillColor=#ffe6cc;strokeColor=#d79b00;" vertex="1" parent="1">
          <mxGeometry x="130" y="310" width="280" height="220" as="geometry" />
        </mxCell>
        <mxCell id="TXVNdsbxdxfbxnSRyo0z-48" value="" style="group" vertex="1" connectable="0" parent="1">
          <mxGeometry x="150" y="365" width="80" height="80" as="geometry" />
        </mxCell>
        <mxCell id="TXVNdsbxdxfbxnSRyo0z-49" value="" style="ellipse;whiteSpace=wrap;html=1;aspect=fixed;" vertex="1" parent="TXVNdsbxdxfbxnSRyo0z-48">
          <mxGeometry width="80" height="80" as="geometry" />
        </mxCell>
        <mxCell id="TXVNdsbxdxfbxnSRyo0z-50" value="" style="shape=image;verticalLabelPosition=bottom;labelBackgroundColor=default;verticalAlign=top;aspect=fixed;imageAspect=0;image=data:image/svg+xml,PHN2ZyB4bWxucz0iaHR0cDovL3d3dy53My5vcmcvMjAwMC9zdmciIHZpZXdCb3g9IjAgMCA4OTkuMTggOTUzLjkyIiBkYXRhLW5hbWU9IkNhcGEgMSIgaWQ9IkNhcGFfMSI+PGRlZnM+PHN0eWxlPi5jbHMtMXtmaWxsOmdyYXk7fS5jbHMtMntmaWxsOiNmZmE3MDA7fTwvc3R5bGU+PC9kZWZzPjx0aXRsZT5TPC90aXRsZT48cGF0aCBkPSJNNDk1LjQ5LDIzMC45YTYxLjQ2LDYxLjQ2LDAsMCwxLTQwLjYtMTUuNDIsMTgyLjMyLDE4Mi4zMiwwLDAsMC0xMjAuODMtNDUuNjdjLTEwMS4zMywwLTE4My40Nyw4Mi4xNy0xODMuNDcsMTgzLjQ5czgyLjE0LDE4My40MiwxODMuNDcsMTgzLjQySDU3OC42OGE2MS4xNyw2MS4xNywwLDEsMSwwLDEyMi4zM0gzMzQuMDZDMTY1LjIzLDY1OSwyOC4zMiw1MjIuMTQsMjguMzIsMzUzLjI4UzE2NS4yMyw0Ny42MSwzMzQuMDYsNDcuNTRhMzA0Ljc3LDMwNC43NywwLDAsMSwyMDEuOCw3Ni4xMUM1NzguMywxNjAuOTQsNTUyLDIzMC45LDQ5NS40OSwyMzAuOVoiIGNsYXNzPSJjbHMtMSIvPjxwYXRoIGQ9Ik00MDguMzgsNzIzLjExQTYxLjUxLDYxLjUxLDAsMCwxLDQ0OSw3MzguNTFhMTgyLjMzLDE4Mi4zMywwLDAsMCwxMjAuODEsNDUuNjdjMTAxLjYyLDAsMTgzLjkyLTgyLjcyLDE4My40NC0xODQuMzgtLjQ3LTEwMS4zLTg0LjE1LTE4Mi41OS0xODUuNDctMTgyLjU5SDMyNS4xNmE2MS4xNSw2MS4xNSwwLDEsMSwwLTEyMi4yOUg1NjkuNzljMTY4LjgyLDAsMzA1Ljc4LDEzNi45LDMwNS43OCwzMDUuNzVzLTEzNywzMDUuNjctMzA1Ljc4LDMwNS43NUEzMDQuOCwzMDQuOCwwLDAsMSwzNjgsODMwLjMxQzMyNS41OCw3OTMuMDUsMzUxLjg5LDcyMy4xMSw0MDguMzgsNzIzLjExWiIgY2xhc3M9ImNscy0yIi8+PC9zdmc+;" vertex="1" parent="TXVNdsbxdxfbxnSRyo0z-48">
          <mxGeometry x="8.909999999999968" y="7" width="62.19" height="66" as="geometry" />
        </mxCell>
        <mxCell id="TXVNdsbxdxfbxnSRyo0z-51" value="" style="group" vertex="1" connectable="0" parent="1">
          <mxGeometry x="303.5" y="450" width="93" height="30" as="geometry" />
        </mxCell>
        <mxCell id="TXVNdsbxdxfbxnSRyo0z-52" value="" style="rounded=1;whiteSpace=wrap;html=1;" vertex="1" parent="TXVNdsbxdxfbxnSRyo0z-51">
          <mxGeometry x="0.7380952380952381" width="88.57142857142857" height="30" as="geometry" />
        </mxCell>
        <mxCell id="TXVNdsbxdxfbxnSRyo0z-53" value="70.70.70.70" style="text;html=1;strokeColor=none;fillColor=none;align=center;verticalAlign=middle;whiteSpace=wrap;rounded=0;" vertex="1" parent="TXVNdsbxdxfbxnSRyo0z-51">
          <mxGeometry y="3.75" width="93" height="22.5" as="geometry" />
        </mxCell>
        <mxCell id="TXVNdsbxdxfbxnSRyo0z-54" value="" style="group" vertex="1" connectable="0" parent="1">
          <mxGeometry x="143.5" y="450" width="93" height="30" as="geometry" />
        </mxCell>
        <mxCell id="TXVNdsbxdxfbxnSRyo0z-55" value="" style="rounded=1;whiteSpace=wrap;html=1;" vertex="1" parent="TXVNdsbxdxfbxnSRyo0z-54">
          <mxGeometry x="0.7380952380952381" width="88.57142857142857" height="30" as="geometry" />
        </mxCell>
        <mxCell id="TXVNdsbxdxfbxnSRyo0z-56" value="192.168.10.1" style="text;html=1;strokeColor=none;fillColor=none;align=center;verticalAlign=middle;whiteSpace=wrap;rounded=0;" vertex="1" parent="TXVNdsbxdxfbxnSRyo0z-54">
          <mxGeometry y="3.75" width="93" height="22.5" as="geometry" />
        </mxCell>
        <mxCell id="TXVNdsbxdxfbxnSRyo0z-59" style="edgeStyle=orthogonalEdgeStyle;rounded=0;orthogonalLoop=1;jettySize=auto;html=1;exitX=0;exitY=0.5;exitDx=0;exitDy=0;entryX=1;entryY=0.5;entryDx=0;entryDy=0;strokeWidth=4;strokeColor=#FFAD66;" edge="1" parent="1" target="TXVNdsbxdxfbxnSRyo0z-49">
          <mxGeometry relative="1" as="geometry">
            <mxPoint x="310" y="405" as="sourcePoint" />
          </mxGeometry>
        </mxCell>
        <mxCell id="TXVNdsbxdxfbxnSRyo0z-61" value="" style="group" vertex="1" connectable="0" parent="1">
          <mxGeometry x="680" y="310" width="290" height="220" as="geometry" />
        </mxCell>
        <mxCell id="TXVNdsbxdxfbxnSRyo0z-30" value="" style="rounded=1;whiteSpace=wrap;html=1;container=0;fillColor=#fff2cc;strokeColor=#d6b656;" vertex="1" parent="TXVNdsbxdxfbxnSRyo0z-61">
          <mxGeometry width="290" height="220" as="geometry" />
        </mxCell>
        <mxCell id="TXVNdsbxdxfbxnSRyo0z-32" value="" style="group" vertex="1" connectable="0" parent="TXVNdsbxdxfbxnSRyo0z-61">
          <mxGeometry x="196.5" y="55" width="80" height="80" as="geometry" />
        </mxCell>
        <mxCell id="TXVNdsbxdxfbxnSRyo0z-33" value="" style="ellipse;whiteSpace=wrap;html=1;aspect=fixed;" vertex="1" parent="TXVNdsbxdxfbxnSRyo0z-32">
          <mxGeometry width="80" height="80" as="geometry" />
        </mxCell>
        <mxCell id="TXVNdsbxdxfbxnSRyo0z-34" value="" style="shape=image;verticalLabelPosition=bottom;labelBackgroundColor=default;verticalAlign=top;aspect=fixed;imageAspect=0;image=data:image/svg+xml,PHN2ZyB4bWxucz0iaHR0cDovL3d3dy53My5vcmcvMjAwMC9zdmciIHZpZXdCb3g9IjAgMCA4OTkuMTggOTUzLjkyIiBkYXRhLW5hbWU9IkNhcGEgMSIgaWQ9IkNhcGFfMSI+PGRlZnM+PHN0eWxlPi5jbHMtMXtmaWxsOmdyYXk7fS5jbHMtMntmaWxsOiNmZmE3MDA7fTwvc3R5bGU+PC9kZWZzPjx0aXRsZT5TPC90aXRsZT48cGF0aCBkPSJNNDk1LjQ5LDIzMC45YTYxLjQ2LDYxLjQ2LDAsMCwxLTQwLjYtMTUuNDIsMTgyLjMyLDE4Mi4zMiwwLDAsMC0xMjAuODMtNDUuNjdjLTEwMS4zMywwLTE4My40Nyw4Mi4xNy0xODMuNDcsMTgzLjQ5czgyLjE0LDE4My40MiwxODMuNDcsMTgzLjQySDU3OC42OGE2MS4xNyw2MS4xNywwLDEsMSwwLDEyMi4zM0gzMzQuMDZDMTY1LjIzLDY1OSwyOC4zMiw1MjIuMTQsMjguMzIsMzUzLjI4UzE2NS4yMyw0Ny42MSwzMzQuMDYsNDcuNTRhMzA0Ljc3LDMwNC43NywwLDAsMSwyMDEuOCw3Ni4xMUM1NzguMywxNjAuOTQsNTUyLDIzMC45LDQ5NS40OSwyMzAuOVoiIGNsYXNzPSJjbHMtMSIvPjxwYXRoIGQ9Ik00MDguMzgsNzIzLjExQTYxLjUxLDYxLjUxLDAsMCwxLDQ0OSw3MzguNTFhMTgyLjMzLDE4Mi4zMywwLDAsMCwxMjAuODEsNDUuNjdjMTAxLjYyLDAsMTgzLjkyLTgyLjcyLDE4My40NC0xODQuMzgtLjQ3LTEwMS4zLTg0LjE1LTE4Mi41OS0xODUuNDctMTgyLjU5SDMyNS4xNmE2MS4xNSw2MS4xNSwwLDEsMSwwLTEyMi4yOUg1NjkuNzljMTY4LjgyLDAsMzA1Ljc4LDEzNi45LDMwNS43OCwzMDUuNzVzLTEzNywzMDUuNjctMzA1Ljc4LDMwNS43NUEzMDQuOCwzMDQuOCwwLDAsMSwzNjgsODMwLjMxQzMyNS41OCw3OTMuMDUsMzUxLjg5LDcyMy4xMSw0MDguMzgsNzIzLjExWiIgY2xhc3M9ImNscy0yIi8+PC9zdmc+;" vertex="1" parent="TXVNdsbxdxfbxnSRyo0z-32">
          <mxGeometry x="8.909999999999968" y="7" width="62.19" height="66" as="geometry" />
        </mxCell>
        <mxCell id="TXVNdsbxdxfbxnSRyo0z-35" value="" style="group" vertex="1" connectable="0" parent="TXVNdsbxdxfbxnSRyo0z-61">
          <mxGeometry x="13.5" y="140" width="93" height="30" as="geometry" />
        </mxCell>
        <mxCell id="TXVNdsbxdxfbxnSRyo0z-36" value="" style="rounded=1;whiteSpace=wrap;html=1;" vertex="1" parent="TXVNdsbxdxfbxnSRyo0z-35">
          <mxGeometry x="0.7380952380952381" width="88.57142857142857" height="30" as="geometry" />
        </mxCell>
        <mxCell id="TXVNdsbxdxfbxnSRyo0z-37" value="60.60.60.60" style="text;html=1;strokeColor=none;fillColor=none;align=center;verticalAlign=middle;whiteSpace=wrap;rounded=0;" vertex="1" parent="TXVNdsbxdxfbxnSRyo0z-35">
          <mxGeometry y="3.75" width="93" height="22.5" as="geometry" />
        </mxCell>
        <mxCell id="TXVNdsbxdxfbxnSRyo0z-38" value="" style="group" vertex="1" connectable="0" parent="TXVNdsbxdxfbxnSRyo0z-61">
          <mxGeometry x="190" y="140" width="93" height="30" as="geometry" />
        </mxCell>
        <mxCell id="TXVNdsbxdxfbxnSRyo0z-39" value="" style="rounded=1;whiteSpace=wrap;html=1;" vertex="1" parent="TXVNdsbxdxfbxnSRyo0z-38">
          <mxGeometry x="0.7380952380952381" width="88.57142857142857" height="30" as="geometry" />
        </mxCell>
        <mxCell id="TXVNdsbxdxfbxnSRyo0z-40" value="192.168.0.1" style="text;html=1;strokeColor=none;fillColor=none;align=center;verticalAlign=middle;whiteSpace=wrap;rounded=0;" vertex="1" parent="TXVNdsbxdxfbxnSRyo0z-38">
          <mxGeometry y="3.75" width="93" height="22.5" as="geometry" />
        </mxCell>
        <mxCell id="TXVNdsbxdxfbxnSRyo0z-45" style="edgeStyle=orthogonalEdgeStyle;rounded=0;orthogonalLoop=1;jettySize=auto;html=1;exitX=1;exitY=0.5;exitDx=0;exitDy=0;entryX=0;entryY=0.5;entryDx=0;entryDy=0;strokeWidth=4;strokeColor=#FFAD66;" edge="1" parent="TXVNdsbxdxfbxnSRyo0z-61" target="TXVNdsbxdxfbxnSRyo0z-33">
          <mxGeometry relative="1" as="geometry">
            <mxPoint x="100" y="95" as="sourcePoint" />
          </mxGeometry>
        </mxCell>
        <mxCell id="TXVNdsbxdxfbxnSRyo0z-84" value="" style="group" vertex="1" connectable="0" parent="TXVNdsbxdxfbxnSRyo0z-61">
          <mxGeometry x="-13.5" y="64.5" width="120" height="61" as="geometry" />
        </mxCell>
        <mxCell id="TXVNdsbxdxfbxnSRyo0z-85" value="" style="rounded=1;whiteSpace=wrap;html=1;strokeWidth=2;" vertex="1" parent="TXVNdsbxdxfbxnSRyo0z-84">
          <mxGeometry x="20" y="41" width="100" height="30" as="geometry" />
        </mxCell>
        <mxCell id="TXVNdsbxdxfbxnSRyo0z-86" value="" style="ellipse;whiteSpace=wrap;html=1;aspect=fixed;fillColor=#000000;" vertex="1" parent="TXVNdsbxdxfbxnSRyo0z-84">
          <mxGeometry x="97.5" y="51" width="10" height="10" as="geometry" />
        </mxCell>
        <mxCell id="TXVNdsbxdxfbxnSRyo0z-87" value="" style="ellipse;whiteSpace=wrap;html=1;aspect=fixed;fillColor=#000000;" vertex="1" parent="TXVNdsbxdxfbxnSRyo0z-84">
          <mxGeometry x="82.5" y="51" width="10" height="10" as="geometry" />
        </mxCell>
        <mxCell id="TXVNdsbxdxfbxnSRyo0z-88" value="" style="endArrow=none;html=1;rounded=0;strokeWidth=2;" edge="1" parent="TXVNdsbxdxfbxnSRyo0z-84">
          <mxGeometry width="50" height="50" relative="1" as="geometry">
            <mxPoint x="80" y="41" as="sourcePoint" />
            <mxPoint x="110" y="11" as="targetPoint" />
          </mxGeometry>
        </mxCell>
        <mxCell id="TXVNdsbxdxfbxnSRyo0z-89" value="" style="endArrow=none;html=1;rounded=0;strokeWidth=2;" edge="1" parent="TXVNdsbxdxfbxnSRyo0z-84">
          <mxGeometry width="50" height="50" relative="1" as="geometry">
            <mxPoint x="79.5" y="40" as="sourcePoint" />
            <mxPoint x="57" y="10" as="targetPoint" />
          </mxGeometry>
        </mxCell>
        <mxCell id="TXVNdsbxdxfbxnSRyo0z-62" value="" style="endArrow=classic;html=1;rounded=0;strokeWidth=4;fillColor=#ffe6cc;strokeColor=#d79b00;" edge="1" parent="1">
          <mxGeometry width="50" height="50" relative="1" as="geometry">
            <mxPoint x="430" y="404.5" as="sourcePoint" />
            <mxPoint x="660" y="405" as="targetPoint" />
          </mxGeometry>
        </mxCell>
        <mxCell id="TXVNdsbxdxfbxnSRyo0z-63" value="" style="endArrow=none;html=1;rounded=0;startArrow=classic;startFill=1;strokeWidth=4;endFill=0;fillColor=#ffe6cc;strokeColor=#d79b00;" edge="1" parent="1">
          <mxGeometry width="50" height="50" relative="1" as="geometry">
            <mxPoint x="430" y="444" as="sourcePoint" />
            <mxPoint x="660" y="444.5" as="targetPoint" />
          </mxGeometry>
        </mxCell>
        <mxCell id="TXVNdsbxdxfbxnSRyo0z-65" value="" style="rounded=1;whiteSpace=wrap;html=1;fillColor=#f5f5f5;fontColor=#333333;strokeColor=#666666;" vertex="1" parent="1">
          <mxGeometry x="485" y="370" width="120" height="110" as="geometry" />
        </mxCell>
        <mxCell id="TXVNdsbxdxfbxnSRyo0z-66" value="&lt;font style=&quot;font-size: 17px;&quot;&gt;Identify&lt;br&gt;Protocol&lt;/font&gt;" style="text;html=1;strokeColor=none;fillColor=none;align=center;verticalAlign=middle;whiteSpace=wrap;rounded=0;" vertex="1" parent="1">
          <mxGeometry x="502.5" y="392.5" width="85" height="65" as="geometry" />
        </mxCell>
        <mxCell id="TXVNdsbxdxfbxnSRyo0z-83" value="" style="group" vertex="1" connectable="0" parent="1">
          <mxGeometry x="280" y="374.5" width="120" height="61" as="geometry" />
        </mxCell>
        <mxCell id="TXVNdsbxdxfbxnSRyo0z-68" value="" style="rounded=1;whiteSpace=wrap;html=1;strokeWidth=2;" vertex="1" parent="TXVNdsbxdxfbxnSRyo0z-83">
          <mxGeometry x="20" y="41" width="100" height="30" as="geometry" />
        </mxCell>
        <mxCell id="TXVNdsbxdxfbxnSRyo0z-70" value="" style="ellipse;whiteSpace=wrap;html=1;aspect=fixed;fillColor=#000000;" vertex="1" parent="TXVNdsbxdxfbxnSRyo0z-83">
          <mxGeometry x="97.5" y="51" width="10" height="10" as="geometry" />
        </mxCell>
        <mxCell id="TXVNdsbxdxfbxnSRyo0z-71" value="" style="ellipse;whiteSpace=wrap;html=1;aspect=fixed;fillColor=#000000;" vertex="1" parent="TXVNdsbxdxfbxnSRyo0z-83">
          <mxGeometry x="82.5" y="51" width="10" height="10" as="geometry" />
        </mxCell>
        <mxCell id="TXVNdsbxdxfbxnSRyo0z-72" value="" style="endArrow=none;html=1;rounded=0;strokeWidth=2;" edge="1" parent="TXVNdsbxdxfbxnSRyo0z-83">
          <mxGeometry width="50" height="50" relative="1" as="geometry">
            <mxPoint x="80" y="41" as="sourcePoint" />
            <mxPoint x="110" y="11" as="targetPoint" />
          </mxGeometry>
        </mxCell>
        <mxCell id="TXVNdsbxdxfbxnSRyo0z-73" value="" style="endArrow=none;html=1;rounded=0;strokeWidth=2;" edge="1" parent="TXVNdsbxdxfbxnSRyo0z-83">
          <mxGeometry width="50" height="50" relative="1" as="geometry">
            <mxPoint x="79.5" y="40" as="sourcePoint" />
            <mxPoint x="57" y="10" as="targetPoint" />
          </mxGeometry>
        </mxCell>
      </root>
    </mxGraphModel>
  </diagram>
</mxfile>
